# xmcd
#
# Track frame offsets:
#	150
#	18265
#	35739
#	50730
#	68305
#	84422
#	102370
#
# Disc length: 1569 seconds
#
# Revision: 3
# Processed by: cddbd v1.5.2PL0 Copyright (c) Steve Scherf et al.
# Submitted via: audiograbber 1.83.01
#
DISCID=50061f07
DTITLE=Hunter Hayes - The 21 Project-Live, cd 3
DYEAR=2015
DGENRE=Country
TTITLE0=21
TTITLE1=Young And In Love
TTITLE2=Saint Or A Sinner
TTITLE3=Where It All Begins
TTITLE4=Suitcase
TTITLE5=The Trouble With Love
TTITLE6=I Mean You
EXTD=YEAR: 2015
EXTT0=
EXTT1=
EXTT2=
EXTT3=
EXTT4=
EXTT5=
EXTT6=
PLAYORDER=
